TITLE ""
FILE "LR_black_phrase_E_08.mp3" MP3
  TRACK 01 AUDIO
    TITLE "LR_black_phrase_E_08_001"
    INDEX 01 00:00:00
  TRACK 02 AUDIO
    TITLE "LR_black_phrase_E_08_002"
    INDEX 01 00:00:14
  TRACK 03 AUDIO
    TITLE "LR_black_phrase_E_08_003"
    INDEX 01 00:01:35
  TRACK 04 AUDIO
    TITLE "LR_black_phrase_E_08_004"
    INDEX 01 00:01:65
  TRACK 05 AUDIO
    TITLE "LR_black_phrase_E_08_005"
    INDEX 01 00:04:02
  TRACK 06 AUDIO
    TITLE "LR_black_phrase_E_08_006"
    INDEX 01 00:04:57
  TRACK 07 AUDIO
    TITLE "LR_black_phrase_E_08_007"
    INDEX 01 00:06:72
  TRACK 08 AUDIO
    TITLE "LR_black_phrase_E_08_008"
    INDEX 01 00:08:02
  TRACK 09 AUDIO
    TITLE "LR_black_phrase_E_08_009"
    INDEX 01 00:09:07
  TRACK 10 AUDIO
    TITLE "LR_black_phrase_E_08_010"
    INDEX 01 00:09:39
  TRACK 11 AUDIO
    TITLE "LR_black_phrase_E_08_011"
    INDEX 01 00:11:39
  TRACK 12 AUDIO
    TITLE "LR_black_phrase_E_08_012"
    INDEX 01 00:12:19
  TRACK 13 AUDIO
    TITLE "LR_black_phrase_E_08_013"
    INDEX 01 00:14:22
  TRACK 14 AUDIO
    TITLE "LR_black_phrase_E_08_014"
    INDEX 01 00:15:27
  TRACK 15 AUDIO
    TITLE "LR_black_phrase_E_08_015"
    INDEX 01 00:16:49
  TRACK 16 AUDIO
    TITLE "LR_black_phrase_E_08_016"
    INDEX 01 00:17:03
  TRACK 17 AUDIO
    TITLE "LR_black_phrase_E_08_017"
    INDEX 01 00:19:21
  TRACK 18 AUDIO
    TITLE "LR_black_phrase_E_08_018"
    INDEX 01 00:20:01
  TRACK 19 AUDIO
    TITLE "LR_black_phrase_E_08_019"
    INDEX 01 00:22:22
  TRACK 20 AUDIO
    TITLE "LR_black_phrase_E_08_020"
    INDEX 01 00:23:27
  TRACK 21 AUDIO
    TITLE "LR_black_phrase_E_08_021"
    INDEX 01 00:24:44
  TRACK 22 AUDIO
    TITLE "LR_black_phrase_E_08_022"
    INDEX 01 00:24:72
  TRACK 23 AUDIO
    TITLE "LR_black_phrase_E_08_023"
    INDEX 01 00:26:70
  TRACK 24 AUDIO
    TITLE "LR_black_phrase_E_08_024"
    INDEX 01 00:27:50
  TRACK 25 AUDIO
    TITLE "LR_black_phrase_E_08_025"
    INDEX 01 00:29:47
  TRACK 26 AUDIO
    TITLE "LR_black_phrase_E_08_026"
    INDEX 01 00:30:54
  TRACK 27 AUDIO
    TITLE "LR_black_phrase_E_08_027"
    INDEX 01 00:31:66
  TRACK 28 AUDIO
    TITLE "LR_black_phrase_E_08_028"
    INDEX 01 00:32:14
  TRACK 29 AUDIO
    TITLE "LR_black_phrase_E_08_029"
    INDEX 01 00:34:43
  TRACK 30 AUDIO
    TITLE "LR_black_phrase_E_08_030"
    INDEX 01 00:35:22
  TRACK 31 AUDIO
    TITLE "LR_black_phrase_E_08_031"
    INDEX 01 00:37:49
  TRACK 32 AUDIO
    TITLE "LR_black_phrase_E_08_032"
    INDEX 01 00:38:54
  TRACK 33 AUDIO
    TITLE "LR_black_phrase_E_08_033"
    INDEX 01 00:40:02
  TRACK 34 AUDIO
    TITLE "LR_black_phrase_E_08_034"
    INDEX 01 00:40:31
  TRACK 35 AUDIO
    TITLE "LR_black_phrase_E_08_035"
    INDEX 01 00:42:64
  TRACK 36 AUDIO
    TITLE "LR_black_phrase_E_08_036"
    INDEX 01 00:43:41
  TRACK 37 AUDIO
    TITLE "LR_black_phrase_E_08_037"
    INDEX 01 00:45:74
  TRACK 38 AUDIO
    TITLE "LR_black_phrase_E_08_038"
    INDEX 01 00:47:02
  TRACK 39 AUDIO
    TITLE "LR_black_phrase_E_08_039"
    INDEX 01 00:48:25
  TRACK 40 AUDIO
    TITLE "LR_black_phrase_E_08_040"
    INDEX 01 00:48:52
  TRACK 41 AUDIO
    TITLE "LR_black_phrase_E_08_041"
    INDEX 01 00:50:71
  TRACK 42 AUDIO
    TITLE "LR_black_phrase_E_08_042"
    INDEX 01 00:51:53
  TRACK 43 AUDIO
    TITLE "LR_black_phrase_E_08_043"
    INDEX 01 00:53:71
  TRACK 44 AUDIO
    TITLE "LR_black_phrase_E_08_044"
    INDEX 01 00:55:03
  TRACK 45 AUDIO
    TITLE "LR_black_phrase_E_08_045"
    INDEX 01 00:56:17
  TRACK 46 AUDIO
    TITLE "LR_black_phrase_E_08_046"
    INDEX 01 00:56:46
  TRACK 47 AUDIO
    TITLE "LR_black_phrase_E_08_047"
    INDEX 01 00:58:55
  TRACK 48 AUDIO
    TITLE "LR_black_phrase_E_08_048"
    INDEX 01 00:59:35
  TRACK 49 AUDIO
    TITLE "LR_black_phrase_E_08_049"
    INDEX 01 01:01:43
  TRACK 50 AUDIO
    TITLE "LR_black_phrase_E_08_050"
    INDEX 01 01:02:47
  TRACK 51 AUDIO
    TITLE "LR_black_phrase_E_08_051"
    INDEX 01 01:03:46
  TRACK 52 AUDIO
    TITLE "LR_black_phrase_E_08_052"
    INDEX 01 01:04:04
  TRACK 53 AUDIO
    TITLE "LR_black_phrase_E_08_053"
    INDEX 01 01:05:70
  TRACK 54 AUDIO
    TITLE "LR_black_phrase_E_08_054"
    INDEX 01 01:06:50
  TRACK 55 AUDIO
    TITLE "LR_black_phrase_E_08_055"
    INDEX 01 01:08:43
  TRACK 56 AUDIO
    TITLE "LR_black_phrase_E_08_056"
    INDEX 01 01:09:47
  TRACK 57 AUDIO
    TITLE "LR_black_phrase_E_08_057"
    INDEX 01 01:10:62
  TRACK 58 AUDIO
    TITLE "LR_black_phrase_E_08_058"
    INDEX 01 01:11:16
  TRACK 59 AUDIO
    TITLE "LR_black_phrase_E_08_059"
    INDEX 01 01:13:41
  TRACK 60 AUDIO
    TITLE "LR_black_phrase_E_08_060"
    INDEX 01 01:14:18
  TRACK 61 AUDIO
    TITLE "LR_black_phrase_E_08_061"
    INDEX 01 01:16:43
  TRACK 62 AUDIO
    TITLE "LR_black_phrase_E_08_062"
    INDEX 01 01:17:42
  TRACK 63 AUDIO
    TITLE "LR_black_phrase_E_08_063"
    INDEX 01 01:18:52
  TRACK 64 AUDIO
    TITLE "LR_black_phrase_E_08_064"
    INDEX 01 01:18:73
  TRACK 65 AUDIO
    TITLE "LR_black_phrase_E_08_065"
    INDEX 01 01:21:34
  TRACK 66 AUDIO
    TITLE "LR_black_phrase_E_08_066"
    INDEX 01 01:22:04
  TRACK 67 AUDIO
    TITLE "LR_black_phrase_E_08_067"
    INDEX 01 01:24:42
  TRACK 68 AUDIO
    TITLE "LR_black_phrase_E_08_068"
    INDEX 01 01:25:38
  TRACK 69 AUDIO
    TITLE "LR_black_phrase_E_08_069"
    INDEX 01 01:26:59
  TRACK 70 AUDIO
    TITLE "LR_black_phrase_E_08_070"
    INDEX 01 01:27:04
  TRACK 71 AUDIO
    TITLE "LR_black_phrase_E_08_071"
    INDEX 01 01:29:24
  TRACK 72 AUDIO
    TITLE "LR_black_phrase_E_08_072"
    INDEX 01 01:29:67
  TRACK 73 AUDIO
    TITLE "LR_black_phrase_E_08_073"
    INDEX 01 01:32:12
  TRACK 74 AUDIO
    TITLE "LR_black_phrase_E_08_074"
    INDEX 01 01:33:08
  TRACK 75 AUDIO
    TITLE "LR_black_phrase_E_08_075"
    INDEX 01 01:34:23
  TRACK 76 AUDIO
    TITLE "LR_black_phrase_E_08_076"
    INDEX 01 01:34:45
  TRACK 77 AUDIO
    TITLE "LR_black_phrase_E_08_077"
    INDEX 01 01:36:49
  TRACK 78 AUDIO
    TITLE "LR_black_phrase_E_08_078"
    INDEX 01 01:37:22
  TRACK 79 AUDIO
    TITLE "LR_black_phrase_E_08_079"
    INDEX 01 01:39:24
  TRACK 80 AUDIO
    TITLE "LR_black_phrase_E_08_080"
    INDEX 01 01:40:16
  TRACK 81 AUDIO
    TITLE "LR_black_phrase_E_08_081"
    INDEX 01 01:41:37
  TRACK 82 AUDIO
    TITLE "LR_black_phrase_E_08_082"
    INDEX 01 01:41:57
  TRACK 83 AUDIO
    TITLE "LR_black_phrase_E_08_083"
    INDEX 01 01:44:20
  TRACK 84 AUDIO
    TITLE "LR_black_phrase_E_08_084"
    INDEX 01 01:44:65
  TRACK 85 AUDIO
    TITLE "LR_black_phrase_E_08_085"
    INDEX 01 01:47:26
  TRACK 86 AUDIO
    TITLE "LR_black_phrase_E_08_086"
    INDEX 01 01:48:21
  TRACK 87 AUDIO
    TITLE "LR_black_phrase_E_08_087"
    INDEX 01 01:49:38
  TRACK 88 AUDIO
    TITLE "LR_black_phrase_E_08_088"
    INDEX 01 01:49:58
  TRACK 89 AUDIO
    TITLE "LR_black_phrase_E_08_089"
    INDEX 01 01:51:29
  TRACK 90 AUDIO
    TITLE "LR_black_phrase_E_08_090"
    INDEX 01 01:52:00
  TRACK 91 AUDIO
    TITLE "LR_black_phrase_E_08_091"
    INDEX 01 01:53:48
  TRACK 92 AUDIO
    TITLE "LR_black_phrase_E_08_092"
    INDEX 01 01:54:43
  TRACK 93 AUDIO
    TITLE "LR_black_phrase_E_08_093"
    INDEX 01 01:55:39
  TRACK 94 AUDIO
    TITLE "LR_black_phrase_E_08_094"
    INDEX 01 01:55:63
  TRACK 95 AUDIO
    TITLE "LR_black_phrase_E_08_095"
    INDEX 01 01:57:71
  TRACK 96 AUDIO
    TITLE "LR_black_phrase_E_08_096"
    INDEX 01 01:58:45
  TRACK 97 AUDIO
    TITLE "LR_black_phrase_E_08_097"
    INDEX 01 02:00:54
  TRACK 98 AUDIO
    TITLE "LR_black_phrase_E_08_098"
    INDEX 01 02:01:49
  TRACK 99 AUDIO
    TITLE "LR_black_phrase_E_08_099"
    INDEX 01 02:02:74
  TRACK 100 AUDIO
    TITLE "LR_black_phrase_E_08_100"
    INDEX 01 02:03:19
  TRACK 101 AUDIO
    TITLE "LR_black_phrase_E_08_101"
    INDEX 01 02:05:35
  TRACK 102 AUDIO
    TITLE "LR_black_phrase_E_08_102"
    INDEX 01 02:06:04
  TRACK 103 AUDIO
    TITLE "LR_black_phrase_E_08_103"
    INDEX 01 02:08:20
  TRACK 104 AUDIO
    TITLE "LR_black_phrase_E_08_104"
    INDEX 01 02:09:14
  TRACK 105 AUDIO
    TITLE "LR_black_phrase_E_08_105"
    INDEX 01 02:10:39
  TRACK 106 AUDIO
    TITLE "LR_black_phrase_E_08_106"
    INDEX 01 02:10:60
  TRACK 107 AUDIO
    TITLE "LR_black_phrase_E_08_107"
    INDEX 01 02:12:47
  TRACK 108 AUDIO
    TITLE "LR_black_phrase_E_08_108"
    INDEX 01 02:13:19
  TRACK 109 AUDIO
    TITLE "LR_black_phrase_E_08_109"
    INDEX 01 02:15:08
  TRACK 110 AUDIO
    TITLE "LR_black_phrase_E_08_110"
    INDEX 01 02:16:04
  TRACK 111 AUDIO
    TITLE "LR_black_phrase_E_08_111"
    INDEX 01 02:17:15
  TRACK 112 AUDIO
    TITLE "LR_black_phrase_E_08_112"
    INDEX 01 02:17:37
  TRACK 113 AUDIO
    TITLE "LR_black_phrase_E_08_113"
    INDEX 01 02:19:73
  TRACK 114 AUDIO
    TITLE "LR_black_phrase_E_08_114"
    INDEX 01 02:20:45
  TRACK 115 AUDIO
    TITLE "LR_black_phrase_E_08_115"
    INDEX 01 02:23:06
  TRACK 116 AUDIO
    TITLE "LR_black_phrase_E_08_116"
    INDEX 01 02:24:01
  TRACK 117 AUDIO
    TITLE "LR_black_phrase_E_08_117"
    INDEX 01 02:25:22
  TRACK 118 AUDIO
    TITLE "LR_black_phrase_E_08_118"
    INDEX 01 02:25:52
  TRACK 119 AUDIO
    TITLE "LR_black_phrase_E_08_119"
    INDEX 01 02:28:13
  TRACK 120 AUDIO
    TITLE "LR_black_phrase_E_08_120"
    INDEX 01 02:28:56
  TRACK 121 AUDIO
    TITLE "LR_black_phrase_E_08_121"
    INDEX 01 02:31:17
  TRACK 122 AUDIO
    TITLE "LR_black_phrase_E_08_122"
    INDEX 01 02:32:13
  TRACK 123 AUDIO
    TITLE "LR_black_phrase_E_08_123"
    INDEX 01 02:33:45
  TRACK 124 AUDIO
    TITLE "LR_black_phrase_E_08_124"
    INDEX 01 02:33:71
  TRACK 125 AUDIO
    TITLE "LR_black_phrase_E_08_125"
    INDEX 01 02:36:38
  TRACK 126 AUDIO
    TITLE "LR_black_phrase_E_08_126"
    INDEX 01 02:37:20
  TRACK 127 AUDIO
    TITLE "LR_black_phrase_E_08_127"
    INDEX 01 02:39:62
  TRACK 128 AUDIO
    TITLE "LR_black_phrase_E_08_128"
    INDEX 01 02:40:67
  TRACK 129 AUDIO
    TITLE "LR_black_phrase_E_08_129"
    INDEX 01 02:42:21
  TRACK 130 AUDIO
    TITLE "LR_black_phrase_E_08_130"
    INDEX 01 02:42:50
  TRACK 131 AUDIO
    TITLE "LR_black_phrase_E_08_131"
    INDEX 01 02:45:10
  TRACK 132 AUDIO
    TITLE "LR_black_phrase_E_08_132"
    INDEX 01 02:45:64
  TRACK 133 AUDIO
    TITLE "LR_black_phrase_E_08_133"
    INDEX 01 02:48:24
  TRACK 134 AUDIO
    TITLE "LR_black_phrase_E_08_134"
    INDEX 01 02:49:29
  TRACK 135 AUDIO
    TITLE "LR_black_phrase_E_08_135"
    INDEX 01 02:50:46
  TRACK 136 AUDIO
    TITLE "LR_black_phrase_E_08_136"
    INDEX 01 02:50:66
  TRACK 137 AUDIO
    TITLE "LR_black_phrase_E_08_137"
    INDEX 01 02:52:53
  TRACK 138 AUDIO
    TITLE "LR_black_phrase_E_08_138"
    INDEX 01 02:53:25
  TRACK 139 AUDIO
    TITLE "LR_black_phrase_E_08_139"
    INDEX 01 02:55:14
  TRACK 140 AUDIO
    TITLE "LR_black_phrase_E_08_140"
    INDEX 01 02:56:17
  TRACK 141 AUDIO
    TITLE "LR_black_phrase_E_08_141"
    INDEX 01 02:57:32
  TRACK 142 AUDIO
    TITLE "LR_black_phrase_E_08_142"
    INDEX 01 02:57:58
  TRACK 143 AUDIO
    TITLE "LR_black_phrase_E_08_143"
    INDEX 01 02:59:70
  TRACK 144 AUDIO
    TITLE "LR_black_phrase_E_08_144"
    INDEX 01 03:00:50
  TRACK 145 AUDIO
    TITLE "LR_black_phrase_E_08_145"
    INDEX 01 03:02:63
  TRACK 146 AUDIO
    TITLE "LR_black_phrase_E_08_146"
    INDEX 01 03:03:68
  TRACK 147 AUDIO
    TITLE "LR_black_phrase_E_08_147"
    INDEX 01 03:05:22
  TRACK 148 AUDIO
    TITLE "LR_black_phrase_E_08_148"
    INDEX 01 03:05:51
  TRACK 149 AUDIO
    TITLE "LR_black_phrase_E_08_149"
    INDEX 01 03:08:20
  TRACK 150 AUDIO
    TITLE "LR_black_phrase_E_08_150"
    INDEX 01 03:09:02
  TRACK 151 AUDIO
    TITLE "LR_black_phrase_E_08_151"
    INDEX 01 03:11:42
  TRACK 152 AUDIO
    TITLE "LR_black_phrase_E_08_152"
    INDEX 01 03:12:48
  TRACK 153 AUDIO
    TITLE "LR_black_phrase_E_08_153"
    INDEX 01 03:13:69
  TRACK 154 AUDIO
    TITLE "LR_black_phrase_E_08_154"
    INDEX 01 03:14:25
  TRACK 155 AUDIO
    TITLE "LR_black_phrase_E_08_155"
    INDEX 01 03:17:02
  TRACK 156 AUDIO
    TITLE "LR_black_phrase_E_08_156"
    INDEX 01 03:17:57
  TRACK 157 AUDIO
    TITLE "LR_black_phrase_E_08_157"
    INDEX 01 03:20:35
  TRACK 158 AUDIO
    TITLE "LR_black_phrase_E_08_158"
    INDEX 01 03:21:41
  TRACK 159 AUDIO
    TITLE "LR_black_phrase_E_08_159"
    INDEX 01 03:22:56
  TRACK 160 AUDIO
    TITLE "LR_black_phrase_E_08_160"
    INDEX 01 03:23:12
  TRACK 161 AUDIO
    TITLE "LR_black_phrase_E_08_161"
    INDEX 01 03:25:64
  TRACK 162 AUDIO
    TITLE "LR_black_phrase_E_08_162"
    INDEX 01 03:26:44
  TRACK 163 AUDIO
    TITLE "LR_black_phrase_E_08_163"
    INDEX 01 03:29:19
  TRACK 164 AUDIO
    TITLE "LR_black_phrase_E_08_164"
    INDEX 01 03:30:22
  TRACK 165 AUDIO
    TITLE "LR_black_phrase_E_08_165"
    INDEX 01 03:31:47
  TRACK 166 AUDIO
    TITLE "LR_black_phrase_E_08_166"
    INDEX 01 03:31:74
  TRACK 167 AUDIO
    TITLE "LR_black_phrase_E_08_167"
    INDEX 01 03:34:08
  TRACK 168 AUDIO
    TITLE "LR_black_phrase_E_08_168"
    INDEX 01 03:34:63
  TRACK 169 AUDIO
    TITLE "LR_black_phrase_E_08_169"
    INDEX 01 03:36:72
  TRACK 170 AUDIO
    TITLE "LR_black_phrase_E_08_170"
    INDEX 01 03:38:00
  TRACK 171 AUDIO
    TITLE "LR_black_phrase_E_08_171"
    INDEX 01 03:39:11
  TRACK 172 AUDIO
    TITLE "LR_black_phrase_E_08_172"
    INDEX 01 03:39:42
  TRACK 173 AUDIO
    TITLE "LR_black_phrase_E_08_173"
    INDEX 01 03:41:16
  TRACK 174 AUDIO
    TITLE "LR_black_phrase_E_08_174"
    INDEX 01 03:41:73
  TRACK 175 AUDIO
    TITLE "LR_black_phrase_E_08_175"
    INDEX 01 03:43:46
  TRACK 176 AUDIO
    TITLE "LR_black_phrase_E_08_176"
    INDEX 01 03:44:51
  TRACK 177 AUDIO
    TITLE "LR_black_phrase_E_08_177"
    INDEX 01 03:45:74
  TRACK 178 AUDIO
    TITLE "LR_black_phrase_E_08_178"
    INDEX 01 03:46:29
  TRACK 179 AUDIO
    TITLE "LR_black_phrase_E_08_179"
    INDEX 01 03:49:11
  TRACK 180 AUDIO
    TITLE "LR_black_phrase_E_08_180"
    INDEX 01 03:49:64
  TRACK 181 AUDIO
    TITLE "LR_black_phrase_E_08_181"
    INDEX 01 03:52:47
  TRACK 182 AUDIO
    TITLE "LR_black_phrase_E_08_182"
    INDEX 01 03:53:46
  TRACK 183 AUDIO
    TITLE "LR_black_phrase_E_08_183"
    INDEX 01 03:54:67
  TRACK 184 AUDIO
    TITLE "LR_black_phrase_E_08_184"
    INDEX 01 03:55:12
  TRACK 185 AUDIO
    TITLE "LR_black_phrase_E_08_185"
    INDEX 01 03:57:17
  TRACK 186 AUDIO
    TITLE "LR_black_phrase_E_08_186"
    INDEX 01 03:57:62
  TRACK 187 AUDIO
    TITLE "LR_black_phrase_E_08_187"
    INDEX 01 03:59:65
  TRACK 188 AUDIO
    TITLE "LR_black_phrase_E_08_188"
    INDEX 01 04:00:66
  TRACK 189 AUDIO
    TITLE "LR_black_phrase_E_08_189"
    INDEX 01 04:02:04
  TRACK 190 AUDIO
    TITLE "LR_black_phrase_E_08_190"
    INDEX 01 04:02:24
  TRACK 191 AUDIO
    TITLE "LR_black_phrase_E_08_191"
    INDEX 01 04:04:42
  TRACK 192 AUDIO
    TITLE "LR_black_phrase_E_08_192"
    INDEX 01 04:05:22
  TRACK 193 AUDIO
    TITLE "LR_black_phrase_E_08_193"
    INDEX 01 04:07:49
  TRACK 194 AUDIO
    TITLE "LR_black_phrase_E_08_194"
    INDEX 01 04:08:44
  TRACK 195 AUDIO
    TITLE "LR_black_phrase_E_08_195"
    INDEX 01 04:09:42
  TRACK 196 AUDIO
    TITLE "LR_black_phrase_E_08_196"
    INDEX 01 04:10:00
  TRACK 197 AUDIO
    TITLE "LR_black_phrase_E_08_197"
    INDEX 01 04:12:71
  TRACK 198 AUDIO
    TITLE "LR_black_phrase_E_08_198"
    INDEX 01 04:13:43
  TRACK 199 AUDIO
    TITLE "LR_black_phrase_E_08_199"
    INDEX 01 04:16:42
  TRACK 200 AUDIO
    TITLE "LR_black_phrase_E_08_200"
    INDEX 01 04:17:39
  TRACK 201 AUDIO
    TITLE "LR_black_phrase_E_08_201"
    INDEX 01 04:18:48
  TRACK 202 AUDIO
    TITLE "LR_black_phrase_E_08_202"
    INDEX 01 04:18:70
  TRACK 203 AUDIO
    TITLE "LR_black_phrase_E_08_203"
    INDEX 01 04:20:65
  TRACK 204 AUDIO
    TITLE "LR_black_phrase_E_08_204"
    INDEX 01 04:21:35
  TRACK 205 AUDIO
    TITLE "LR_black_phrase_E_08_205"
    INDEX 01 04:23:30
  TRACK 206 AUDIO
    TITLE "LR_black_phrase_E_08_206"
    INDEX 01 04:24:25
  TRACK 207 AUDIO
    TITLE "LR_black_phrase_E_08_207"
    INDEX 01 04:25:33
  TRACK 208 AUDIO
    TITLE "LR_black_phrase_E_08_208"
    INDEX 01 04:25:54
  TRACK 209 AUDIO
    TITLE "LR_black_phrase_E_08_209"
    INDEX 01 04:27:30
  TRACK 210 AUDIO
    TITLE "LR_black_phrase_E_08_210"
    INDEX 01 04:28:04
  TRACK 211 AUDIO
    TITLE "LR_black_phrase_E_08_211"
    INDEX 01 04:29:52
  TRACK 212 AUDIO
    TITLE "LR_black_phrase_E_08_212"
    INDEX 01 04:30:50
  TRACK 213 AUDIO
    TITLE "LR_black_phrase_E_08_213"
    INDEX 01 04:31:61
  TRACK 214 AUDIO
    TITLE "LR_black_phrase_E_08_214"
    INDEX 01 04:32:07
  TRACK 215 AUDIO
    TITLE "LR_black_phrase_E_08_215"
    INDEX 01 04:34:32
  TRACK 216 AUDIO
    TITLE "LR_black_phrase_E_08_216"
    INDEX 01 04:35:02
  TRACK 217 AUDIO
    TITLE "LR_black_phrase_E_08_217"
    INDEX 01 04:37:28
  TRACK 218 AUDIO
    TITLE "LR_black_phrase_E_08_218"
    INDEX 01 04:38:24
  TRACK 219 AUDIO
    TITLE "LR_black_phrase_E_08_219"
    INDEX 01 04:39:52
  TRACK 220 AUDIO
    TITLE "LR_black_phrase_E_08_220"
    INDEX 01 04:39:74
  TRACK 221 AUDIO
    TITLE "LR_black_phrase_E_08_221"
    INDEX 01 04:42:49
  TRACK 222 AUDIO
    TITLE "LR_black_phrase_E_08_222"
    INDEX 01 04:43:17
  TRACK 223 AUDIO
    TITLE "LR_black_phrase_E_08_223"
    INDEX 01 04:45:65
  TRACK 224 AUDIO
    TITLE "LR_black_phrase_E_08_224"
    INDEX 01 04:46:60
  TRACK 225 AUDIO
    TITLE "LR_black_phrase_E_08_225"
    INDEX 01 04:48:08
  TRACK 226 AUDIO
    TITLE "LR_black_phrase_E_08_226"
    INDEX 01 04:48:34
  TRACK 227 AUDIO
    TITLE "LR_black_phrase_E_08_227"
    INDEX 01 04:51:32
  TRACK 228 AUDIO
    TITLE "LR_black_phrase_E_08_228"
    INDEX 01 04:52:06
  TRACK 229 AUDIO
    TITLE "LR_black_phrase_E_08_229"
    INDEX 01 04:55:03
  TRACK 230 AUDIO
    TITLE "LR_black_phrase_E_08_230"
    INDEX 01 04:56:02
  TRACK 231 AUDIO
    TITLE "LR_black_phrase_E_08_231"
    INDEX 01 04:57:37
  TRACK 232 AUDIO
    TITLE "LR_black_phrase_E_08_232"
    INDEX 01 04:57:56
  TRACK 233 AUDIO
    TITLE "LR_black_phrase_E_08_233"
    INDEX 01 05:00:19
  TRACK 234 AUDIO
    TITLE "LR_black_phrase_E_08_234"
    INDEX 01 05:00:64
  TRACK 235 AUDIO
    TITLE "LR_black_phrase_E_08_235"
    INDEX 01 05:03:28
  TRACK 236 AUDIO
    TITLE "LR_black_phrase_E_08_236"
    INDEX 01 05:04:23
  TRACK 237 AUDIO
    TITLE "LR_black_phrase_E_08_237"
    INDEX 01 05:05:40
  TRACK 238 AUDIO
    TITLE "LR_black_phrase_E_08_238"
    INDEX 01 05:05:66
  TRACK 239 AUDIO
    TITLE "LR_black_phrase_E_08_239"
    INDEX 01 05:07:61
  TRACK 240 AUDIO
    TITLE "LR_black_phrase_E_08_240"
    INDEX 01 05:08:31
  TRACK 241 AUDIO
    TITLE "LR_black_phrase_E_08_241"
    INDEX 01 05:10:24
  TRACK 242 AUDIO
    TITLE "LR_black_phrase_E_08_242"
    INDEX 01 05:11:19
  TRACK 243 AUDIO
    TITLE "LR_black_phrase_E_08_243"
    INDEX 01 05:12:32
  TRACK 244 AUDIO
    TITLE "LR_black_phrase_E_08_244"
    INDEX 01 05:12:64
  TRACK 245 AUDIO
    TITLE "LR_black_phrase_E_08_245"
    INDEX 01 05:14:55
  TRACK 246 AUDIO
    TITLE "LR_black_phrase_E_08_246"
    INDEX 01 05:15:37
  TRACK 247 AUDIO
    TITLE "LR_black_phrase_E_08_247"
    INDEX 01 05:17:28
  TRACK 248 AUDIO
    TITLE "LR_black_phrase_E_08_248"
    INDEX 01 05:18:33
  TRACK 249 AUDIO
    TITLE "LR_black_phrase_E_08_249"
    INDEX 01 05:19:48
  TRACK 250 AUDIO
    TITLE "LR_black_phrase_E_08_250"
    INDEX 01 05:19:70
  TRACK 251 AUDIO
    TITLE "LR_black_phrase_E_08_251"
    INDEX 01 05:22:17
  TRACK 252 AUDIO
    TITLE "LR_black_phrase_E_08_252"
    INDEX 01 05:22:64
  TRACK 253 AUDIO
    TITLE "LR_black_phrase_E_08_253"
    INDEX 01 05:25:13
  TRACK 254 AUDIO
    TITLE "LR_black_phrase_E_08_254"
    INDEX 01 05:26:17
  TRACK 255 AUDIO
    TITLE "LR_black_phrase_E_08_255"
    INDEX 01 05:27:18
  TRACK 256 AUDIO
    TITLE "LR_black_phrase_E_08_256"
    INDEX 01 05:27:46
  TRACK 257 AUDIO
    TITLE "LR_black_phrase_E_08_257"
    INDEX 01 05:29:05
  TRACK 258 AUDIO
    TITLE "LR_black_phrase_E_08_258"
    INDEX 01 05:29:56
  TRACK 259 AUDIO
    TITLE "LR_black_phrase_E_08_259"
    INDEX 01 05:31:14
  TRACK 260 AUDIO
    TITLE "LR_black_phrase_E_08_260"
    INDEX 01 05:32:17
  TRACK 261 AUDIO
    TITLE "LR_black_phrase_E_08_261"
    INDEX 01 05:33:31
  TRACK 262 AUDIO
    TITLE "LR_black_phrase_E_08_262"
    INDEX 01 05:33:60
  TRACK 263 AUDIO
    TITLE "LR_black_phrase_E_08_263"
    INDEX 01 05:36:25
  TRACK 264 AUDIO
    TITLE "LR_black_phrase_E_08_264"
    INDEX 01 05:37:05
  TRACK 265 AUDIO
    TITLE "LR_black_phrase_E_08_265"
    INDEX 01 05:39:45
  TRACK 266 AUDIO
    TITLE "LR_black_phrase_E_08_266"
    INDEX 01 05:40:50
  TRACK 267 AUDIO
    TITLE "LR_black_phrase_E_08_267"
    INDEX 01 05:41:69
  TRACK 268 AUDIO
    TITLE "LR_black_phrase_E_08_268"
    INDEX 01 05:42:26
  TRACK 269 AUDIO
    TITLE "LR_black_phrase_E_08_269"
    INDEX 01 05:44:13
  TRACK 270 AUDIO
    TITLE "LR_black_phrase_E_08_270"
    INDEX 01 05:44:68
  TRACK 271 AUDIO
    TITLE "LR_black_phrase_E_08_271"
    INDEX 01 05:46:55
  TRACK 272 AUDIO
    TITLE "LR_black_phrase_E_08_272"
    INDEX 01 05:47:60
  TRACK 273 AUDIO
    TITLE "LR_black_phrase_E_08_273"
    INDEX 01 05:49:10
  TRACK 274 AUDIO
    TITLE "LR_black_phrase_E_08_274"
    INDEX 01 05:49:39
  TRACK 275 AUDIO
    TITLE "LR_black_phrase_E_08_275"
    INDEX 01 05:51:28
  TRACK 276 AUDIO
    TITLE "LR_black_phrase_E_08_276"
    INDEX 01 05:52:08
  TRACK 277 AUDIO
    TITLE "LR_black_phrase_E_08_277"
    INDEX 01 05:53:70
  TRACK 278 AUDIO
    TITLE "LR_black_phrase_E_08_278"
    INDEX 01 05:54:74
  TRACK 279 AUDIO
    TITLE "LR_black_phrase_E_08_279"
    INDEX 01 05:56:10
  TRACK 280 AUDIO
    TITLE "LR_black_phrase_E_08_280"
    INDEX 01 05:56:39
  TRACK 281 AUDIO
    TITLE "LR_black_phrase_E_08_281"
    INDEX 01 05:58:21
  TRACK 282 AUDIO
    TITLE "LR_black_phrase_E_08_282"
    INDEX 01 05:58:74
  TRACK 283 AUDIO
    TITLE "LR_black_phrase_E_08_283"
    INDEX 01 06:00:55
  TRACK 284 AUDIO
    TITLE "LR_black_phrase_E_08_284"
    INDEX 01 06:01:60
  TRACK 285 AUDIO
    TITLE "LR_black_phrase_E_08_285"
    INDEX 01 06:03:22
  TRACK 286 AUDIO
    TITLE "LR_black_phrase_E_08_286"
    INDEX 01 06:03:51
  TRACK 287 AUDIO
    TITLE "LR_black_phrase_E_08_287"
    INDEX 01 06:05:48
  TRACK 288 AUDIO
    TITLE "LR_black_phrase_E_08_288"
    INDEX 01 06:06:26
  TRACK 289 AUDIO
    TITLE "LR_black_phrase_E_08_289"
    INDEX 01 06:08:23
  TRACK 290 AUDIO
    TITLE "LR_black_phrase_E_08_290"
    INDEX 01 06:09:26
  TRACK 291 AUDIO
    TITLE "LR_black_phrase_E_08_291"
    INDEX 01 06:10:42
  TRACK 292 AUDIO
    TITLE "LR_black_phrase_E_08_292"
    INDEX 01 06:10:73
  TRACK 293 AUDIO
    TITLE "LR_black_phrase_E_08_293"
    INDEX 01 06:12:64
  TRACK 294 AUDIO
    TITLE "LR_black_phrase_E_08_294"
    INDEX 01 06:13:44
  TRACK 295 AUDIO
    TITLE "LR_black_phrase_E_08_295"
    INDEX 01 06:15:37
  TRACK 296 AUDIO
    TITLE "LR_black_phrase_E_08_296"
    INDEX 01 06:16:42
  TRACK 297 AUDIO
    TITLE "LR_black_phrase_E_08_297"
    INDEX 01 06:17:51
  TRACK 298 AUDIO
    TITLE "LR_black_phrase_E_08_298"
    INDEX 01 06:18:04
  TRACK 299 AUDIO
    TITLE "LR_black_phrase_E_08_299"
    INDEX 01 06:19:68
  TRACK 300 AUDIO
    TITLE "LR_black_phrase_E_08_300"
    INDEX 01 06:20:48
  TRACK 301 AUDIO
    TITLE "LR_black_phrase_E_08_301"
    INDEX 01 06:22:37
  TRACK 302 AUDIO
    TITLE "LR_black_phrase_E_08_302"
    INDEX 01 06:23:34
  TRACK 303 AUDIO
    TITLE "LR_black_phrase_E_08_303"
    INDEX 01 06:24:59
  TRACK 304 AUDIO
    TITLE "LR_black_phrase_E_08_304"
    INDEX 01 06:25:06
  TRACK 305 AUDIO
    TITLE "LR_black_phrase_E_08_305"
    INDEX 01 06:27:09
  TRACK 306 AUDIO
    TITLE "LR_black_phrase_E_08_306"
    INDEX 01 06:27:58
  TRACK 307 AUDIO
    TITLE "LR_black_phrase_E_08_307"
    INDEX 01 06:29:62
  TRACK 308 AUDIO
    TITLE "LR_black_phrase_E_08_308"
    INDEX 01 06:30:64
  TRACK 309 AUDIO
    TITLE "LR_black_phrase_E_08_309"
    INDEX 01 06:32:06
  TRACK 310 AUDIO
    TITLE "LR_black_phrase_E_08_310"
    INDEX 01 06:32:27
  TRACK 311 AUDIO
    TITLE "LR_black_phrase_E_08_311"
    INDEX 01 06:34:15
  TRACK 312 AUDIO
    TITLE "LR_black_phrase_E_08_312"
    INDEX 01 06:34:58
  TRACK 313 AUDIO
    TITLE "LR_black_phrase_E_08_313"
    INDEX 01 06:36:45
  TRACK 314 AUDIO
    TITLE "LR_black_phrase_E_08_314"
    INDEX 01 06:37:38
  TRACK 315 AUDIO
    TITLE "LR_black_phrase_E_08_315"
    INDEX 01 06:38:48
  TRACK 316 AUDIO
    TITLE "LR_black_phrase_E_08_316"
    INDEX 01 06:38:67
  TRACK 317 AUDIO
    TITLE "LR_black_phrase_E_08_317"
    INDEX 01 06:40:60
  TRACK 318 AUDIO
    TITLE "LR_black_phrase_E_08_318"
    INDEX 01 06:41:34
  TRACK 319 AUDIO
    TITLE "LR_black_phrase_E_08_319"
    INDEX 01 06:43:27
  TRACK 320 AUDIO
    TITLE "LR_black_phrase_E_08_320"
    INDEX 01 06:44:37
  TRACK 321 AUDIO
    TITLE "LR_black_phrase_E_08_321"
    INDEX 01 06:45:57
  TRACK 322 AUDIO
    TITLE "LR_black_phrase_E_08_322"
    INDEX 01 06:46:18
  TRACK 323 AUDIO
    TITLE "LR_black_phrase_E_08_323"
    INDEX 01 06:48:40
  TRACK 324 AUDIO
    TITLE "LR_black_phrase_E_08_324"
    INDEX 01 06:49:20
  TRACK 325 AUDIO
    TITLE "LR_black_phrase_E_08_325"
    INDEX 01 06:51:42
  TRACK 326 AUDIO
    TITLE "LR_black_phrase_E_08_326"
    INDEX 01 06:52:42
  TRACK 327 AUDIO
    TITLE "LR_black_phrase_E_08_327"
    INDEX 01 06:53:55
  TRACK 328 AUDIO
    TITLE "LR_black_phrase_E_08_328"
    INDEX 01 06:54:09
  TRACK 329 AUDIO
    TITLE "LR_black_phrase_E_08_329"
    INDEX 01 06:56:10
  TRACK 330 AUDIO
    TITLE "LR_black_phrase_E_08_330"
    INDEX 01 06:56:59
  TRACK 331 AUDIO
    TITLE "LR_black_phrase_E_08_331"
    INDEX 01 06:58:60
  TRACK 332 AUDIO
    TITLE "LR_black_phrase_E_08_332"
    INDEX 01 06:59:54
  TRACK 333 AUDIO
    TITLE "LR_black_phrase_E_08_333"
    INDEX 01 07:00:69
  TRACK 334 AUDIO
    TITLE "LR_black_phrase_E_08_334"
    INDEX 01 07:01:19
  TRACK 335 AUDIO
    TITLE "LR_black_phrase_E_08_335"
    INDEX 01 07:02:66
  TRACK 336 AUDIO
    TITLE "LR_black_phrase_E_08_336"
    INDEX 01 07:03:38
  TRACK 337 AUDIO
    TITLE "LR_black_phrase_E_08_337"
    INDEX 01 07:05:09
  TRACK 338 AUDIO
    TITLE "LR_black_phrase_E_08_338"
    INDEX 01 07:06:05
  TRACK 339 AUDIO
    TITLE "LR_black_phrase_E_08_339"
    INDEX 01 07:07:22
  TRACK 340 AUDIO
    TITLE "LR_black_phrase_E_08_340"
    INDEX 01 07:07:45
  TRACK 341 AUDIO
    TITLE "LR_black_phrase_E_08_341"
    INDEX 01 07:09:34
  TRACK 342 AUDIO
    TITLE "LR_black_phrase_E_08_342"
    INDEX 01 07:10:06
  TRACK 343 AUDIO
    TITLE "LR_black_phrase_E_08_343"
    INDEX 01 07:11:69
  TRACK 344 AUDIO
    TITLE "LR_black_phrase_E_08_344"
    INDEX 01 07:12:64
  TRACK 345 AUDIO
    TITLE "LR_black_phrase_E_08_345"
    INDEX 01 07:14:02
  TRACK 346 AUDIO
    TITLE "LR_black_phrase_E_08_346"
    INDEX 01 07:14:22
  TRACK 347 AUDIO
    TITLE "LR_black_phrase_E_08_347"
    INDEX 01 07:17:16
  TRACK 348 AUDIO
    TITLE "LR_black_phrase_E_08_348"
    INDEX 01 07:17:61
  TRACK 349 AUDIO
    TITLE "LR_black_phrase_E_08_349"
    INDEX 01 07:20:56
  TRACK 350 AUDIO
    TITLE "LR_black_phrase_E_08_350"
    INDEX 01 07:21:51
  TRACK 351 AUDIO
    TITLE "LR_black_phrase_E_08_351"
    INDEX 01 07:23:03
  TRACK 352 AUDIO
    TITLE "LR_black_phrase_E_08_352"
    INDEX 01 07:23:23
  TRACK 353 AUDIO
    TITLE "LR_black_phrase_E_08_353"
    INDEX 01 07:26:09
  TRACK 354 AUDIO
    TITLE "LR_black_phrase_E_08_354"
    INDEX 01 07:26:55
  TRACK 355 AUDIO
    TITLE "LR_black_phrase_E_08_355"
    INDEX 01 07:29:41
  TRACK 356 AUDIO
    TITLE "LR_black_phrase_E_08_356"
    INDEX 01 07:30:37
  TRACK 357 AUDIO
    TITLE "LR_black_phrase_E_08_357"
    INDEX 01 07:31:52
  TRACK 358 AUDIO
    TITLE "LR_black_phrase_E_08_358"
    INDEX 01 07:32:02
  TRACK 359 AUDIO
    TITLE "LR_black_phrase_E_08_359"
    INDEX 01 07:34:58
  TRACK 360 AUDIO
    TITLE "LR_black_phrase_E_08_360"
    INDEX 01 07:35:26
  TRACK 361 AUDIO
    TITLE "LR_black_phrase_E_08_361"
    INDEX 01 07:38:09
  TRACK 362 AUDIO
    TITLE "LR_black_phrase_E_08_362"
    INDEX 01 07:39:06
  TRACK 363 AUDIO
    TITLE "LR_black_phrase_E_08_363"
    INDEX 01 07:40:45
  TRACK 364 AUDIO
    TITLE "LR_black_phrase_E_08_364"
    INDEX 01 07:40:74
  TRACK 365 AUDIO
    TITLE "LR_black_phrase_E_08_365"
    INDEX 01 07:44:27
  TRACK 366 AUDIO
    TITLE "LR_black_phrase_E_08_366"
    INDEX 01 07:45:07
  TRACK 367 AUDIO
    TITLE "LR_black_phrase_E_08_367"
    INDEX 01 07:48:37
  TRACK 368 AUDIO
    TITLE "LR_black_phrase_E_08_368"
    INDEX 01 07:49:40
  TRACK 369 AUDIO
    TITLE "LR_black_phrase_E_08_369"
    INDEX 01 07:50:41
  TRACK 370 AUDIO
    TITLE "LR_black_phrase_E_08_370"
    INDEX 01 07:50:69
  TRACK 371 AUDIO
    TITLE "LR_black_phrase_E_08_371"
    INDEX 01 07:53:08
  TRACK 372 AUDIO
    TITLE "LR_black_phrase_E_08_372"
    INDEX 01 07:53:61
  TRACK 373 AUDIO
    TITLE "LR_black_phrase_E_08_373"
    INDEX 01 07:56:01
  TRACK 374 AUDIO
    TITLE "LR_black_phrase_E_08_374"
    INDEX 01 07:57:04
  TRACK 375 AUDIO
    TITLE "LR_black_phrase_E_08_375"
    INDEX 01 07:58:23
  TRACK 376 AUDIO
    TITLE "LR_black_phrase_E_08_376"
    INDEX 01 07:58:55
  TRACK 377 AUDIO
    TITLE "LR_black_phrase_E_08_377"
    INDEX 01 08:01:08
  TRACK 378 AUDIO
    TITLE "LR_black_phrase_E_08_378"
    INDEX 01 08:01:59
  TRACK 379 AUDIO
    TITLE "LR_black_phrase_E_08_379"
    INDEX 01 08:04:14
  TRACK 380 AUDIO
    TITLE "LR_black_phrase_E_08_380"
    INDEX 01 08:05:17
  TRACK 381 AUDIO
    TITLE "LR_black_phrase_E_08_381"
    INDEX 01 08:06:30
  TRACK 382 AUDIO
    TITLE "LR_black_phrase_E_08_382"
    INDEX 01 08:06:60
  TRACK 383 AUDIO
    TITLE "LR_black_phrase_E_08_383"
    INDEX 01 08:09:52
  TRACK 384 AUDIO
    TITLE "LR_black_phrase_E_08_384"
    INDEX 01 08:10:32
  TRACK 385 AUDIO
    TITLE "LR_black_phrase_E_08_385"
    INDEX 01 08:13:25
  TRACK 386 AUDIO
    TITLE "LR_black_phrase_E_08_386"
    INDEX 01 08:14:30
  TRACK 387 AUDIO
    TITLE "LR_black_phrase_E_08_387"
    INDEX 01 08:15:49
  TRACK 388 AUDIO
    TITLE "LR_black_phrase_E_08_388"
    INDEX 01 08:16:05
  TRACK 389 AUDIO
    TITLE "LR_black_phrase_E_08_389"
    INDEX 01 08:18:04
  TRACK 390 AUDIO
    TITLE "LR_black_phrase_E_08_390"
    INDEX 01 08:18:59
  TRACK 391 AUDIO
    TITLE "LR_black_phrase_E_08_391"
    INDEX 01 08:20:60
  TRACK 392 AUDIO
    TITLE "LR_black_phrase_E_08_392"
    INDEX 01 08:21:65
  TRACK 393 AUDIO
    TITLE "LR_black_phrase_E_08_393"
    INDEX 01 08:23:07
  TRACK 394 AUDIO
    TITLE "LR_black_phrase_E_08_394"
    INDEX 01 08:23:35
  TRACK 395 AUDIO
    TITLE "LR_black_phrase_E_08_395"
    INDEX 01 08:25:47
  TRACK 396 AUDIO
    TITLE "LR_black_phrase_E_08_396"
    INDEX 01 08:26:27
  TRACK 397 AUDIO
    TITLE "LR_black_phrase_E_08_397"
    INDEX 01 08:28:38
  TRACK 398 AUDIO
    TITLE "LR_black_phrase_E_08_398"
    INDEX 01 08:29:45
  TRACK 399 AUDIO
    TITLE "LR_black_phrase_E_08_399"
    INDEX 01 08:30:45
  TRACK 400 AUDIO
    TITLE "LR_black_phrase_E_08_400"
    INDEX 01 08:31:01
  TRACK 401 AUDIO
    TITLE "LR_black_phrase_E_08_401"
    INDEX 01 08:32:61
  TRACK 402 AUDIO
    TITLE "LR_black_phrase_E_08_402"
    INDEX 01 08:33:43
  TRACK 403 AUDIO
    TITLE "LR_black_phrase_E_08_403"
    INDEX 01 08:35:28
  TRACK 404 AUDIO
    TITLE "LR_black_phrase_E_08_404"
    INDEX 01 08:36:34
  TRACK 405 AUDIO
    TITLE "LR_black_phrase_E_08_405"
    INDEX 01 08:37:57
  TRACK 406 AUDIO
    TITLE "LR_black_phrase_E_08_406"
    INDEX 01 08:38:09
  TRACK 407 AUDIO
    TITLE "LR_black_phrase_E_08_407"
    INDEX 01 08:40:04
  TRACK 408 AUDIO
    TITLE "LR_black_phrase_E_08_408"
    INDEX 01 08:40:59
  TRACK 409 AUDIO
    TITLE "LR_black_phrase_E_08_409"
    INDEX 01 08:42:56
  TRACK 410 AUDIO
    TITLE "LR_black_phrase_E_08_410"
    INDEX 01 08:43:59
  TRACK 411 AUDIO
    TITLE "LR_black_phrase_E_08_411"
    INDEX 01 08:44:70
  TRACK 412 AUDIO
    TITLE "LR_black_phrase_E_08_412"
    INDEX 01 08:45:25
  TRACK 413 AUDIO
    TITLE "LR_black_phrase_E_08_413"
    INDEX 01 08:47:53
  TRACK 414 AUDIO
    TITLE "LR_black_phrase_E_08_414"
    INDEX 01 08:48:31
  TRACK 415 AUDIO
    TITLE "LR_black_phrase_E_08_415"
    INDEX 01 08:50:59
  TRACK 416 AUDIO
    TITLE "LR_black_phrase_E_08_416"
    INDEX 01 08:51:64
  TRACK 417 AUDIO
    TITLE "LR_black_phrase_E_08_417"
    INDEX 01 08:52:72
  TRACK 418 AUDIO
    TITLE "LR_black_phrase_E_08_418"
    INDEX 01 08:53:22
  TRACK 419 AUDIO
    TITLE "LR_black_phrase_E_08_419"
    INDEX 01 08:55:43
  TRACK 420 AUDIO
    TITLE "LR_black_phrase_E_08_420"
    INDEX 01 08:56:25
  TRACK 421 AUDIO
    TITLE "LR_black_phrase_E_08_421"
    INDEX 01 08:58:43
  TRACK 422 AUDIO
    TITLE "LR_black_phrase_E_08_422"
    INDEX 01 08:59:42
  TRACK 423 AUDIO
    TITLE "LR_black_phrase_E_08_423"
    INDEX 01 09:00:58
  TRACK 424 AUDIO
    TITLE "LR_black_phrase_E_08_424"
    INDEX 01 09:01:02
  TRACK 425 AUDIO
    TITLE "LR_black_phrase_E_08_425"
    INDEX 01 09:03:21
  TRACK 426 AUDIO
    TITLE "LR_black_phrase_E_08_426"
    INDEX 01 09:03:66
  TRACK 427 AUDIO
    TITLE "LR_black_phrase_E_08_427"
    INDEX 01 09:06:09
  TRACK 428 AUDIO
    TITLE "LR_black_phrase_E_08_428"
    INDEX 01 09:07:01
  TRACK 429 AUDIO
    TITLE "LR_black_phrase_E_08_429"
    INDEX 01 09:08:47
  TRACK 430 AUDIO
    TITLE "LR_black_phrase_E_08_430"
    INDEX 01 09:08:67
  TRACK 431 AUDIO
    TITLE "LR_black_phrase_E_08_431"
    INDEX 01 09:11:40
  TRACK 432 AUDIO
    TITLE "LR_black_phrase_E_08_432"
    INDEX 01 09:12:10
  TRACK 433 AUDIO
    TITLE "LR_black_phrase_E_08_433"
    INDEX 01 09:14:58
  TRACK 434 AUDIO
    TITLE "LR_black_phrase_E_08_434"
    INDEX 01 09:15:53
  TRACK 435 AUDIO
    TITLE "LR_black_phrase_E_08_435"
    INDEX 01 09:16:59
  TRACK 436 AUDIO
    TITLE "LR_black_phrase_E_08_436"
    INDEX 01 09:17:05
  TRACK 437 AUDIO
    TITLE "LR_black_phrase_E_08_437"
    INDEX 01 09:19:10
  TRACK 438 AUDIO
    TITLE "LR_black_phrase_E_08_438"
    INDEX 01 09:19:57
  TRACK 439 AUDIO
    TITLE "LR_black_phrase_E_08_439"
    INDEX 01 09:21:64
  TRACK 440 AUDIO
    TITLE "LR_black_phrase_E_08_440"
    INDEX 01 09:22:59
  TRACK 441 AUDIO
    TITLE "LR_black_phrase_E_08_441"
    INDEX 01 09:24:15
  TRACK 442 AUDIO
    TITLE "LR_black_phrase_E_08_442"
    INDEX 01 09:24:42
  TRACK 443 AUDIO
    TITLE "LR_black_phrase_E_08_443"
    INDEX 01 09:26:55
  TRACK 444 AUDIO
    TITLE "LR_black_phrase_E_08_444"
    INDEX 01 09:27:29
  TRACK 445 AUDIO
    TITLE "LR_black_phrase_E_08_445"
    INDEX 01 09:29:42
  TRACK 446 AUDIO
    TITLE "LR_black_phrase_E_08_446"
    INDEX 01 09:30:37
  TRACK 447 AUDIO
    TITLE "LR_black_phrase_E_08_447"
    INDEX 01 09:31:42
  TRACK 448 AUDIO
    TITLE "LR_black_phrase_E_08_448"
    INDEX 01 09:31:62
  TRACK 449 AUDIO
    TITLE "LR_black_phrase_E_08_449"
    INDEX 01 09:34:35
  TRACK 450 AUDIO
    TITLE "LR_black_phrase_E_08_450"
    INDEX 01 09:35:05
  TRACK 451 AUDIO
    TITLE "LR_black_phrase_E_08_451"
    INDEX 01 09:37:53
  TRACK 452 AUDIO
    TITLE "LR_black_phrase_E_08_452"
    INDEX 01 09:38:46
  TRACK 453 AUDIO
    TITLE "LR_black_phrase_E_08_453"
    INDEX 01 09:39:52
  TRACK 454 AUDIO
    TITLE "LR_black_phrase_E_08_454"
    INDEX 01 09:39:71
  TRACK 455 AUDIO
    TITLE "LR_black_phrase_E_08_455"
    INDEX 01 09:42:13
  TRACK 456 AUDIO
    TITLE "LR_black_phrase_E_08_456"
    INDEX 01 09:42:60
  TRACK 457 AUDIO
    TITLE "LR_black_phrase_E_08_457"
    INDEX 01 09:45:01
  TRACK 458 AUDIO
    TITLE "LR_black_phrase_E_08_458"
    INDEX 01 09:45:72
  TRACK 459 AUDIO
    TITLE "LR_black_phrase_E_08_459"
    INDEX 01 09:47:12
  TRACK 460 AUDIO
    TITLE "LR_black_phrase_E_08_460"
    INDEX 01 09:47:32
  TRACK 461 AUDIO
    TITLE "LR_black_phrase_E_08_461"
    INDEX 01 09:49:44
  TRACK 462 AUDIO
    TITLE "LR_black_phrase_E_08_462"
    INDEX 01 09:50:20
  TRACK 463 AUDIO
    TITLE "LR_black_phrase_E_08_463"
    INDEX 01 09:52:33
  TRACK 464 AUDIO
    TITLE "LR_black_phrase_E_08_464"
    INDEX 01 09:53:32
  TRACK 465 AUDIO
    TITLE "LR_black_phrase_E_08_465"
    INDEX 01 09:54:45
  TRACK 466 AUDIO
    TITLE "LR_black_phrase_E_08_466"
    INDEX 01 09:54:67
  TRACK 467 AUDIO
    TITLE "LR_black_phrase_E_08_467"
    INDEX 01 09:56:74
  TRACK 468 AUDIO
    TITLE "LR_black_phrase_E_08_468"
    INDEX 01 09:57:48
  TRACK 469 AUDIO
    TITLE "LR_black_phrase_E_08_469"
    INDEX 01 09:59:54
  TRACK 470 AUDIO
    TITLE "LR_black_phrase_E_08_470"
    INDEX 01 10:00:52
  TRACK 471 AUDIO
    TITLE "LR_black_phrase_E_08_471"
    INDEX 01 10:01:61
  TRACK 472 AUDIO
    TITLE "LR_black_phrase_E_08_472"
    INDEX 01 10:02:10
  TRACK 473 AUDIO
    TITLE "LR_black_phrase_E_08_473"
    INDEX 01 10:04:26
  TRACK 474 AUDIO
    TITLE "LR_black_phrase_E_08_474"
    INDEX 01 10:05:00
  TRACK 475 AUDIO
    TITLE "LR_black_phrase_E_08_475"
    INDEX 01 10:07:19
  TRACK 476 AUDIO
    TITLE "LR_black_phrase_E_08_476"
    INDEX 01 10:08:14
  TRACK 477 AUDIO
    TITLE "LR_black_phrase_E_08_477"
    INDEX 01 10:09:31
  TRACK 478 AUDIO
    TITLE "LR_black_phrase_E_08_478"
    INDEX 01 10:09:49
  TRACK 479 AUDIO
    TITLE "LR_black_phrase_E_08_479"
    INDEX 01 10:12:14
  TRACK 480 AUDIO
    TITLE "LR_black_phrase_E_08_480"
    INDEX 01 10:12:59
  TRACK 481 AUDIO
    TITLE "LR_black_phrase_E_08_481"
    INDEX 01 10:15:24
  TRACK 482 AUDIO
    TITLE "LR_black_phrase_E_08_482"
    INDEX 01 10:16:25
  TRACK 483 AUDIO
    TITLE "LR_black_phrase_E_08_483"
    INDEX 01 10:17:43
  TRACK 484 AUDIO
    TITLE "LR_black_phrase_E_08_484"
    INDEX 01 10:17:72
  TRACK 485 AUDIO
    TITLE "LR_black_phrase_E_08_485"
    INDEX 01 10:20:31
  TRACK 486 AUDIO
    TITLE "LR_black_phrase_E_08_486"
    INDEX 01 10:21:09
  TRACK 487 AUDIO
    TITLE "LR_black_phrase_E_08_487"
    INDEX 01 10:23:43
  TRACK 488 AUDIO
    TITLE "LR_black_phrase_E_08_488"
    INDEX 01 10:24:48
  TRACK 489 AUDIO
    TITLE "LR_black_phrase_E_08_489"
    INDEX 01 10:25:48
  TRACK 490 AUDIO
    TITLE "LR_black_phrase_E_08_490"
    INDEX 01 10:26:02
  TRACK 491 AUDIO
    TITLE "LR_black_phrase_E_08_491"
    INDEX 01 10:27:51
  TRACK 492 AUDIO
    TITLE "LR_black_phrase_E_08_492"
    INDEX 01 10:28:31
  TRACK 493 AUDIO
    TITLE "LR_black_phrase_E_08_493"
    INDEX 01 10:30:00
  TRACK 494 AUDIO
    TITLE "LR_black_phrase_E_08_494"
    INDEX 01 10:31:03
  TRACK 495 AUDIO
    TITLE "LR_black_phrase_E_08_495"
    INDEX 01 10:32:25
  TRACK 496 AUDIO
    TITLE "LR_black_phrase_E_08_496"
    INDEX 01 10:32:52
  TRACK 497 AUDIO
    TITLE "LR_black_phrase_E_08_497"
    INDEX 01 10:35:37
  TRACK 498 AUDIO
    TITLE "LR_black_phrase_E_08_498"
    INDEX 01 10:36:14
  TRACK 499 AUDIO
    TITLE "LR_black_phrase_E_08_499"
    INDEX 01 10:38:74
  TRACK 500 AUDIO
    TITLE "LR_black_phrase_E_08_500"
    INDEX 01 10:40:02
  TRACK 501 AUDIO
    TITLE "LR_black_phrase_E_08_501"
    INDEX 01 10:41:10
  TRACK 502 AUDIO
    TITLE "LR_black_phrase_E_08_502"
    INDEX 01 10:41:41
  TRACK 503 AUDIO
    TITLE "LR_black_phrase_E_08_503"
    INDEX 01 10:43:22
  TRACK 504 AUDIO
    TITLE "LR_black_phrase_E_08_504"
    INDEX 01 10:44:02
  TRACK 505 AUDIO
    TITLE "LR_black_phrase_E_08_505"
    INDEX 01 10:45:60
  TRACK 506 AUDIO
    TITLE "LR_black_phrase_E_08_506"
    INDEX 01 10:46:64
  TRACK 507 AUDIO
    TITLE "LR_black_phrase_E_08_507"
    INDEX 01 10:48:00
  TRACK 508 AUDIO
    TITLE "LR_black_phrase_E_08_508"
    INDEX 01 10:48:29
  TRACK 509 AUDIO
    TITLE "LR_black_phrase_E_08_509"
    INDEX 01 10:49:74
  TRACK 510 AUDIO
    TITLE "LR_black_phrase_E_08_510"
    INDEX 01 10:50:54
  TRACK 511 AUDIO
    TITLE "LR_black_phrase_E_08_511"
    INDEX 01 10:52:25
  TRACK 512 AUDIO
    TITLE "LR_black_phrase_E_08_512"
    INDEX 01 10:53:29
  TRACK 513 AUDIO
    TITLE "LR_black_phrase_E_08_513"
    INDEX 01 10:54:46
  TRACK 514 AUDIO
    TITLE "LR_black_phrase_E_08_514"
    INDEX 01 10:55:02
  TRACK 515 AUDIO
    TITLE "LR_black_phrase_E_08_515"
    INDEX 01 10:57:09
  TRACK 516 AUDIO
    TITLE "LR_black_phrase_E_08_516"
    INDEX 01 10:57:62
  TRACK 517 AUDIO
    TITLE "LR_black_phrase_E_08_517"
    INDEX 01 10:59:68
  TRACK 518 AUDIO
    TITLE "LR_black_phrase_E_08_518"
    INDEX 01 11:00:72
  TRACK 519 AUDIO
    TITLE "LR_black_phrase_E_08_519"
    INDEX 01 11:02:02
  TRACK 520 AUDIO
    TITLE "LR_black_phrase_E_08_520"
    INDEX 01 11:02:30
  TRACK 521 AUDIO
    TITLE "LR_black_phrase_E_08_521"
    INDEX 01 11:04:38
  TRACK 522 AUDIO
    TITLE "LR_black_phrase_E_08_522"
    INDEX 01 11:05:14
  TRACK 523 AUDIO
    TITLE "LR_black_phrase_E_08_523"
    INDEX 01 11:07:23
  TRACK 524 AUDIO
    TITLE "LR_black_phrase_E_08_524"
    INDEX 01 11:08:26
  TRACK 525 AUDIO
    TITLE "LR_black_phrase_E_08_525"
    INDEX 01 11:09:45
  TRACK 526 AUDIO
    TITLE "LR_black_phrase_E_08_526"
    INDEX 01 11:09:73
  TRACK 527 AUDIO
    TITLE "LR_black_phrase_E_08_527"
    INDEX 01 11:11:62
  TRACK 528 AUDIO
    TITLE "LR_black_phrase_E_08_528"
    INDEX 01 11:12:40
  TRACK 529 AUDIO
    TITLE "LR_black_phrase_E_08_529"
    INDEX 01 11:14:31
  TRACK 530 AUDIO
    TITLE "LR_black_phrase_E_08_530"
    INDEX 01 11:15:32
  TRACK 531 AUDIO
    TITLE "LR_black_phrase_E_08_531"
    INDEX 01 11:16:36
  TRACK 532 AUDIO
    TITLE "LR_black_phrase_E_08_532"
    INDEX 01 11:16:65
  TRACK 533 AUDIO
    TITLE "LR_black_phrase_E_08_533"
    INDEX 01 11:18:58
  TRACK 534 AUDIO
    TITLE "LR_black_phrase_E_08_534"
    INDEX 01 11:19:38
  TRACK 535 AUDIO
    TITLE "LR_black_phrase_E_08_535"
    INDEX 01 11:21:31
  TRACK 536 AUDIO
    TITLE "LR_black_phrase_E_08_536"
    INDEX 01 11:22:34
  TRACK 537 AUDIO
    TITLE "LR_black_phrase_E_08_537"
    INDEX 01 11:23:55
  TRACK 538 AUDIO
    TITLE "LR_black_phrase_E_08_538"
    INDEX 01 11:24:10
  TRACK 539 AUDIO
    TITLE "LR_black_phrase_E_08_539"
    INDEX 01 11:25:72
  TRACK 540 AUDIO
    TITLE "LR_black_phrase_E_08_540"
    INDEX 01 11:26:52
  TRACK 541 AUDIO
    TITLE "LR_black_phrase_E_08_541"
    INDEX 01 11:28:41
  TRACK 542 AUDIO
    TITLE "LR_black_phrase_E_08_542"
    INDEX 01 11:29:42
  TRACK 543 AUDIO
    TITLE "LR_black_phrase_E_08_543"
    INDEX 01 11:30:45
  TRACK 544 AUDIO
    TITLE "LR_black_phrase_E_08_544"
    INDEX 01 11:30:65
  TRACK 545 AUDIO
    TITLE "LR_black_phrase_E_08_545"
    INDEX 01 11:33:28
  TRACK 546 AUDIO
    TITLE "LR_black_phrase_E_08_546"
    INDEX 01 11:33:71
  TRACK 547 AUDIO
    TITLE "LR_black_phrase_E_08_547"
    INDEX 01 11:36:34
  TRACK 548 AUDIO
    TITLE "LR_black_phrase_E_08_548"
    INDEX 01 11:37:30
  TRACK 549 AUDIO
    TITLE "LR_black_phrase_E_08_549"
    INDEX 01 11:38:25
  TRACK 550 AUDIO
    TITLE "LR_black_phrase_E_08_550"
    INDEX 01 11:38:49
  TRACK 551 AUDIO
    TITLE "LR_black_phrase_E_08_551"
    INDEX 01 11:40:61
  TRACK 552 AUDIO
    TITLE "LR_black_phrase_E_08_552"
    INDEX 01 11:41:34
  TRACK 553 AUDIO
    TITLE "LR_black_phrase_E_08_553"
    INDEX 01 11:43:46
  TRACK 554 AUDIO
    TITLE "LR_black_phrase_E_08_554"
    INDEX 01 11:44:42
  TRACK 555 AUDIO
    TITLE "LR_black_phrase_E_08_555"
    INDEX 01 11:45:63
  TRACK 556 AUDIO
    TITLE "LR_black_phrase_E_08_556"
    INDEX 01 11:46:09
  TRACK 557 AUDIO
    TITLE "LR_black_phrase_E_08_557"
    INDEX 01 11:47:60
  TRACK 558 AUDIO
    TITLE "LR_black_phrase_E_08_558"
    INDEX 01 11:48:28
  TRACK 559 AUDIO
    TITLE "LR_black_phrase_E_08_559"
    INDEX 01 11:50:01
  TRACK 560 AUDIO
    TITLE "LR_black_phrase_E_08_560"
    INDEX 01 11:50:70
  TRACK 561 AUDIO
    TITLE "LR_black_phrase_E_08_561"
    INDEX 01 11:52:10
  TRACK 562 AUDIO
    TITLE "LR_black_phrase_E_08_562"
    INDEX 01 11:52:33
  TRACK 563 AUDIO
    TITLE "LR_black_phrase_E_08_563"
    INDEX 01 11:54:28
  TRACK 564 AUDIO
    TITLE "LR_black_phrase_E_08_564"
    INDEX 01 11:55:02
  TRACK 565 AUDIO
    TITLE "LR_black_phrase_E_08_565"
    INDEX 01 11:56:70
  TRACK 566 AUDIO
    TITLE "LR_black_phrase_E_08_566"
    INDEX 01 11:57:70
  TRACK 567 AUDIO
    TITLE "LR_black_phrase_E_08_567"
    INDEX 01 11:59:28
  TRACK 568 AUDIO
    TITLE "LR_black_phrase_E_08_568"
    INDEX 01 11:59:53
  TRACK 569 AUDIO
    TITLE "LR_black_phrase_E_08_569"
    INDEX 01 12:01:73
  TRACK 570 AUDIO
    TITLE "LR_black_phrase_E_08_570"
    INDEX 01 12:02:47
  TRACK 571 AUDIO
    TITLE "LR_black_phrase_E_08_571"
    INDEX 01 12:04:72
  TRACK 572 AUDIO
    TITLE "LR_black_phrase_E_08_572"
    INDEX 01 12:05:71
  TRACK 573 AUDIO
    TITLE "LR_black_phrase_E_08_573"
    INDEX 01 12:07:03
  TRACK 574 AUDIO
    TITLE "LR_black_phrase_E_08_574"
    INDEX 01 12:07:19
  TRACK 575 AUDIO
    TITLE "LR_black_phrase_E_08_575"
    INDEX 01 12:08:70
  TRACK 576 AUDIO
    TITLE "LR_black_phrase_E_08_576"
    INDEX 01 12:09:46
  TRACK 577 AUDIO
    TITLE "LR_black_phrase_E_08_577"
    INDEX 01 12:11:19
  TRACK 578 AUDIO
    TITLE "LR_black_phrase_E_08_578"
    INDEX 01 12:12:14
  TRACK 579 AUDIO
    TITLE "LR_black_phrase_E_08_579"
    INDEX 01 12:13:24
  TRACK 580 AUDIO
    TITLE "LR_black_phrase_E_08_580"
    INDEX 01 12:13:53
  TRACK 581 AUDIO
    TITLE "LR_black_phrase_E_08_581"
    INDEX 01 12:16:14
  TRACK 582 AUDIO
    TITLE "LR_black_phrase_E_08_582"
    INDEX 01 12:16:61
  TRACK 583 AUDIO
    TITLE "LR_black_phrase_E_08_583"
    INDEX 01 12:19:22
  TRACK 584 AUDIO
    TITLE "LR_black_phrase_E_08_584"
    INDEX 01 12:20:16
  TRACK 585 AUDIO
    TITLE "LR_black_phrase_E_08_585"
    INDEX 01 12:21:27
  TRACK 586 AUDIO
    TITLE "LR_black_phrase_E_08_586"
    INDEX 01 12:21:47
  TRACK 587 AUDIO
    TITLE "LR_black_phrase_E_08_587"
    INDEX 01 12:23:28
  TRACK 588 AUDIO
    TITLE "LR_black_phrase_E_08_588"
    INDEX 01 12:23:73
  TRACK 589 AUDIO
    TITLE "LR_black_phrase_E_08_589"
    INDEX 01 12:25:50
  TRACK 590 AUDIO
    TITLE "LR_black_phrase_E_08_590"
    INDEX 01 12:26:48
  TRACK 591 AUDIO
    TITLE "LR_black_phrase_E_08_591"
    INDEX 01 12:27:61
  TRACK 592 AUDIO
    TITLE "LR_black_phrase_E_08_592"
    INDEX 01 12:28:04
  TRACK 593 AUDIO
    TITLE "LR_black_phrase_E_08_593"
    INDEX 01 12:30:24
  TRACK 594 AUDIO
    TITLE "LR_black_phrase_E_08_594"
    INDEX 01 12:30:69
  TRACK 595 AUDIO
    TITLE "LR_black_phrase_E_08_595"
    INDEX 01 12:33:15
  TRACK 596 AUDIO
    TITLE "LR_black_phrase_E_08_596"
    INDEX 01 12:34:10
  TRACK 597 AUDIO
    TITLE "LR_black_phrase_E_08_597"
    INDEX 01 12:35:41
  TRACK 598 AUDIO
    TITLE "LR_black_phrase_E_08_598"
    INDEX 01 12:35:66
  TRACK 599 AUDIO
    TITLE "LR_black_phrase_E_08_599"
    INDEX 01 12:38:02
  TRACK 600 AUDIO
    TITLE "LR_black_phrase_E_08_600"
    INDEX 01 12:38:57
  TRACK 601 AUDIO
    TITLE "LR_black_phrase_E_08_601"
    INDEX 01 12:40:66
